<svg width="63" height="60" viewBox="0 0 63 60" fill="none" 
	xmlns="http://www.w3.org/2000/svg">
	<path opacity="0.1" d="M45.685 39.7894C45.685 40.9434 45.2266 42.05 44.4107 42.866C43.5947 43.6819 42.4881 44.1403 41.3342 44.1403H15.2291L6.52734 52.842V18.0352C6.52734 16.8813 6.98574 15.7746 7.80168 14.9587C8.61762 14.1427 9.72428 13.6843 10.8782 13.6843H41.3342C42.4881 13.6843 43.5947 14.1427 44.4107 14.9587C45.2266 15.7746 45.685 16.8813 45.685 18.0352V39.7894Z" fill="#02D871"/>
	<path d="M55.4721 33.2631C55.4721 34.4171 55.0137 35.5237 54.1978 36.3397C53.3819 37.1556 52.2752 37.614 51.1213 37.614H25.0162L16.3145 46.3157V11.5089C16.3145 10.355 16.7728 9.2483 17.5888 8.43236C18.4047 7.61641 19.5114 7.15802 20.6653 7.15802H51.1213C52.2752 7.15802 53.3819 7.61641 54.1978 8.43236C55.0137 9.2483 55.4721 10.355 55.4721 11.5089V33.2631Z" stroke="#02D871" stroke-width="4.35085" stroke-linecap="round" stroke-linejoin="round"/>
</svg>
