<svg width="46" height="62" viewBox="0 0 46 62" fill="none" 
	xmlns="http://www.w3.org/2000/svg">
	<g opacity="0.1">
		<path d="M24.5657 17.2848C24.7185 14.8769 22.8801 12.7949 20.4498 12.6422C19.3105 12.5706 18.2462 12.9358 17.4206 13.5936L23.1901 20.1953C23.9766 19.4598 24.4925 18.4384 24.5657 17.2848Z" fill="#02D871" stroke="#02D871" stroke-width="1.58442"/>
		<path d="M30.4205 33.8621L5.61972 5.87595C0.500609 12.9585 0.772952 22.8627 6.8167 29.6862C12.8624 36.5116 22.71 38.0275 30.4205 33.8621Z" fill="#02D871" stroke="#02D871" stroke-width="1.58442"/>
		<path d="M32.8455 36.4673C33.1345 36.7936 33.633 36.8249 33.9609 36.5373L35.4077 35.2683C35.7379 34.9788 35.7697 34.4761 35.4787 34.1475L5.93109 0.787497C5.64211 0.461226 5.14363 0.429934 4.81572 0.717479L3.36857 1.98649C3.03834 2.27606 3.00646 2.7788 3.29748 3.10737L32.8455 36.4673Z" fill="#02D871"/>
		<path d="M19.2723 47.3194C19.1767 46.9771 18.8647 46.7403 18.5092 46.7403H6.97199C6.61651 46.7403 6.30455 46.9771 6.20896 47.3194L2.67009 59.9948C2.52909 60.4998 2.90878 61 3.43312 61H22.0481C22.5724 61 22.9521 60.4998 22.8111 59.9948L19.2723 47.3194Z" fill="#02D871" stroke="#02D871" stroke-width="1.58442"/>
		<path d="M11.1484 34.065L15.1297 35.6494V46.7403H11.1484V34.065Z" fill="#02D871"/>
	</g>
	<path d="M24.2535 13.5406C25.2785 12.4157 26.79 11.7485 28.4317 11.8516C31.2948 12.0314 33.4687 14.4862 33.288 17.3345C33.1828 18.9924 32.3031 20.4182 31.0216 21.285" stroke="#02D871" stroke-width="1.58442"/>
	<path d="M13.5054 4.62922C7.56482 12.0443 7.6345 22.8497 14.1551 30.2117C20.6781 37.576 31.4484 39.0022 39.5908 34.065" stroke="#02D871" stroke-width="1.58442"/>
	<path d="M41.3057 35.9991C41.3372 36.0346 41.3915 36.038 41.4272 36.0067L41.8805 36.5236L41.4272 36.0067L42.874 34.7378C42.91 34.7062 42.9134 34.6515 42.8818 34.6157L13.3341 1.25571C13.3026 1.22019 13.2484 1.21678 13.2126 1.24809L11.7655 2.5171C11.7295 2.54863 11.7261 2.60337 11.7578 2.63915L41.3057 35.9991Z" stroke="#02D871" stroke-width="1.41189"/>
	<path d="M27.2039 47.3194C27.1083 46.9771 26.7964 46.7403 26.4409 46.7403H14.9036C14.5481 46.7403 14.2362 46.9771 14.1406 47.3194L10.6017 59.9948C10.4607 60.4998 10.8404 61 11.3648 61H29.9798C30.5041 61 30.8838 60.4998 30.7428 59.9948L27.2039 47.3194Z" stroke="#02D871" stroke-width="1.58442"/>
	<path d="M22.2671 36.1867V45.9481H19.8703V35.2329L22.2671 36.1867Z" stroke="#02D871" stroke-width="1.58442"/>
</svg>
