<svg width="56" height="52" viewBox="0 0 56 52" fill="none" 
	xmlns="http://www.w3.org/2000/svg">
	<path opacity="0.1" fill-rule="evenodd" clip-rule="evenodd" d="M25.3041 4.06653C24.7219 5.19357 24.5022 6.51791 24.766 7.85931C25.1271 9.69532 26.3144 11.1587 27.8658 11.9393C27.8075 12.8232 27.862 13.7292 28.041 14.6395C29.1502 20.2795 34.6215 23.9524 40.2615 22.8432C40.2896 22.8377 40.3176 22.832 40.3456 22.8263C40.3205 23.2977 40.3527 23.7798 40.448 24.2641C41.05 27.3256 43.9494 29.351 47.0034 28.9022C46.2887 41.2502 36.0488 51.0432 23.5216 51.0432C10.531 51.0432 0 40.5122 0 27.5216C0 14.531 10.531 4 23.5216 4C24.1213 4 24.7157 4.02244 25.3041 4.06653Z" fill="#02D871"/>
	<mask id="path-2-inside-1" fill="white">
		<path fill-rule="evenodd" clip-rule="evenodd" d="M33.3041 0.0665269C32.7219 1.19357 32.5022 2.51791 32.766 3.85931C33.1271 5.69532 34.3144 7.15873 35.8658 7.93927C35.8075 8.82321 35.862 9.72917 36.041 10.6395C37.1502 16.2795 42.6215 19.9524 48.2615 18.8432C48.2896 18.8377 48.3176 18.832 48.3456 18.8263C48.3205 19.2977 48.3527 19.7798 48.448 20.2641C49.05 23.3256 51.9494 25.351 55.0034 24.9022C54.2887 37.2502 44.0488 47.0432 31.5216 47.0432C18.531 47.0432 8 36.5122 8 23.5216C8 10.531 18.531 0 31.5216 0C32.1213 0 32.7157 0.0224403 33.3041 0.0665269Z"/>
	</mask>
	<path d="M33.3041 0.0665269L36.17 1.54702C36.6669 0.585114 36.6481 -0.561925 36.12 -1.50704C35.5918 -2.45216 34.6248 -3.06928 33.5451 -3.15018L33.3041 0.0665269ZM32.766 3.85931L29.6009 4.48178V4.48178L32.766 3.85931ZM35.8658 7.93927L39.0846 8.15159C39.1699 6.8586 38.4732 5.64008 37.3156 5.0577L35.8658 7.93927ZM36.041 10.6395L39.2061 10.017V10.017L36.041 10.6395ZM48.2615 18.8432L48.884 22.0083L48.8841 22.0083L48.2615 18.8432ZM48.3456 18.8263L51.5668 18.998C51.6199 18.0001 51.2076 17.0339 50.4504 16.3819C49.6931 15.7298 48.6764 15.4656 47.6975 15.6664L48.3456 18.8263ZM48.448 20.2641L51.6131 19.6417V19.6417L48.448 20.2641ZM55.0034 24.9022L58.2237 25.0885C58.2798 24.1202 57.8971 23.178 57.1816 22.523C56.4662 21.8679 55.494 21.5697 54.5343 21.7107L55.0034 24.9022ZM30.4382 -1.41397C29.5337 0.336909 29.1916 2.40043 29.6009 4.48178L35.9311 3.23683C35.8128 2.63539 35.91 2.05023 36.17 1.54702L30.4382 -1.41397ZM29.6009 4.48178C30.1624 7.33665 32.013 9.61184 34.4161 10.8208L37.3156 5.0577C36.6158 4.70562 36.0918 4.05398 35.9311 3.23683L29.6009 4.48178ZM32.6471 7.72696C32.5705 8.88782 32.6424 10.0745 32.8759 11.262L39.2061 10.017C39.0816 9.38388 39.0445 8.7586 39.0846 8.15159L32.6471 7.72696ZM32.8759 11.262C34.3289 18.65 41.496 23.4613 48.884 22.0083L47.639 15.6781C43.7471 16.4435 39.9715 13.909 39.2061 10.017L32.8759 11.262ZM48.8841 22.0083C48.9206 22.0011 48.9572 21.9937 48.9937 21.9862L47.6975 15.6664C47.6781 15.6703 47.6585 15.6743 47.6389 15.6781L48.8841 22.0083ZM45.1245 18.6547C45.0853 19.3899 45.1358 20.1388 45.2829 20.8866L51.6131 19.6417C51.5696 19.4208 51.5557 19.2055 51.5668 18.998L45.1245 18.6547ZM45.2829 20.8866C46.2187 25.6449 50.7241 28.7915 55.4725 28.0936L54.5343 21.7107C53.1748 21.9105 51.8814 21.0062 51.6131 19.6417L45.2829 20.8866ZM51.783 24.7158C51.1666 35.3675 42.3297 43.8175 31.5216 43.8175V50.2689C45.7679 50.2689 57.4109 39.1329 58.2237 25.0885L51.783 24.7158ZM31.5216 43.8175C20.3125 43.8175 11.2257 34.7307 11.2257 23.5216H4.77428C4.77428 38.2938 16.7495 50.2689 31.5216 50.2689V43.8175ZM11.2257 23.5216C11.2257 12.3125 20.3125 3.22572 31.5216 3.22572V-3.22572C16.7495 -3.22572 4.77428 8.74947 4.77428 23.5216H11.2257ZM31.5216 3.22572C32.0408 3.22572 32.5548 3.24515 33.0631 3.28323L33.5451 -3.15018C32.8766 -3.20027 32.2018 -3.22572 31.5216 -3.22572V3.22572Z" fill="#02D871" mask="url(#path-2-inside-1)"/>
	<circle cx="23.2067" cy="12.4421" r="1.38245" fill="#02D871"/>
	<circle cx="18.0032" cy="23.9625" r="2.76491" fill="#02D871"/>
	<circle cx="33.8059" cy="35.0221" r="2.76491" fill="#02D871"/>
	<circle cx="23.6677" cy="32.2572" r="0.921635" fill="#02D871"/>
	<circle cx="33.8064" cy="23.9625" r="0.921635" fill="#02D871"/>
	<circle cx="46.2477" cy="29.0315" r="1.38245" fill="#02D871"/>
</svg>
