<svg width="20" height="20" viewBox="0 0 20 20" fill="none" 
	xmlns="http://www.w3.org/2000/svg">
	<g opacity="0.8">
		<path d="M13 7C14.2929 7 15.5329 7.51361 16.4471 8.42785C17.3614 9.34209 17.875 10.5821 17.875 11.875V17.5625H14.625V11.875C14.625 11.444 14.4538 11.0307 14.149 10.726C13.8443 10.4212 13.431 10.25 13 10.25C12.569 10.25 12.1557 10.4212 11.851 10.726C11.5462 11.0307 11.375 11.444 11.375 11.875V17.5625H8.125V11.875C8.125 10.5821 8.63861 9.34209 9.55285 8.42785C10.4671 7.51361 11.7071 7 13 7V7Z" stroke="#222222" stroke-width="1.21875" stroke-linecap="round" stroke-linejoin="round"/>
		<path d="M4.875 7.8125H1.625V17.5625H4.875V7.8125Z" stroke="#222222" stroke-width="1.21875" stroke-linecap="round" stroke-linejoin="round"/>
		<path d="M3.25 5.375C4.14746 5.375 4.875 4.64746 4.875 3.75C4.875 2.85254 4.14746 2.125 3.25 2.125C2.35254 2.125 1.625 2.85254 1.625 3.75C1.625 4.64746 2.35254 5.375 3.25 5.375Z" stroke="#222222" stroke-width="1.21875" stroke-linecap="round" stroke-linejoin="round"/>
	</g>
</svg>
