<svg width="20" height="20" viewBox="0 0 20 20" fill="none" 
	xmlns="http://www.w3.org/2000/svg">
	<g opacity="0.8" clip-path="url(#clip0)">
		<path d="M18.6875 2.43734C17.9094 2.98616 17.048 3.40593 16.1363 3.68046C15.6469 3.11782 14.9966 2.71903 14.2732 2.53803C13.5498 2.35703 12.7883 2.40256 12.0917 2.66846C11.395 2.93435 10.7969 3.40779 10.378 4.02473C9.95924 4.64168 9.74 5.37236 9.75 6.11796V6.93046C8.32214 6.96749 6.90729 6.65081 5.63144 6.00864C4.3556 5.36647 3.25838 4.41873 2.4375 3.24984C2.4375 3.24984 -0.8125 10.5623 6.5 13.8123C4.82668 14.9482 2.83331 15.5177 0.8125 15.4373C8.125 19.4998 17.0625 15.4373 17.0625 6.09359C17.0618 5.86727 17.04 5.64151 16.9975 5.41921C17.8267 4.60143 18.4119 3.56892 18.6875 2.43734V2.43734Z" stroke="#222222" stroke-width="1.21875" stroke-linecap="round" stroke-linejoin="round"/>
	</g>
	<defs>
		<clipPath id="clip0">
			<rect width="19.5" height="19.5" fill="white"/>
		</clipPath>
	</defs>
</svg>
